<svg width="16" height="16" viewBox="0 0 16 16" fill="none" xmlns="http://www.w3.org/2000/svg">
<path fill-rule="evenodd" clip-rule="evenodd" d="M6.5 0C2.91015 0 9.53674e-07 2.86962 9.53674e-07 6.40947C9.53674e-07 9.94932 2.91015 12.8189 6.5 12.8189C7.98582 12.8189 9.35519 12.3273 10.45 11.5001L14.5368 15.53C14.8715 15.86 15.4142 15.86 15.7489 15.53C16.0837 15.1999 16.0837 14.6647 15.7489 14.3347L11.6622 10.3049C12.5013 9.22525 13 7.87478 13 6.40947C13 2.86962 10.0899 0 6.5 0ZM6.50007 1.70949C9.13262 1.70949 11.2667 3.81387 11.2667 6.40976C11.2667 9.00565 9.13262 11.11 6.50007 11.11C3.86751 11.11 1.7334 9.00565 1.7334 6.40976C1.7334 3.81387 3.86751 1.70949 6.50007 1.70949Z" fill="#8854DD"/>
</svg>
